# xmcd
#
# Track frame offsets:
#	150
#	13479
#	39241
#	51300
#	67815
#	88595
#	105782
#	131670
#	156504
#	174948
#	186743
#	214675
#
# Disc length: 4397 seconds
#
# Revision: 1
# Processed by: cddbd v1.5.2PL0 Copyright (c) Steve Scherf et al.
# Submitted via: audiograbber 1.83.01
#
DISCID=a2112b0c
DTITLE=Allen, Mack and Myers - Shuffle
DYEAR=2011
DGENRE=Country
TTITLE0=Tennessee
TTITLE1=Angel From Montgomery
TTITLE2=When I Get Back
TTITLE3=Borderline
TTITLE4=When it Comes to You
TTITLE5=Keep On Moving
TTITLE6=The Living Years
TTITLE7=Pretty Things
TTITLE8=You Ain't Going Nowhere
TTITLE9=All I Found
TTITLE10=Goodnight Elizabeth
TTITLE11=Up On Cripple Creek
EXTD=
EXTT0=
EXTT1=
EXTT2=
EXTT3=
EXTT4=
EXTT5=
EXTT6=
EXTT7=
EXTT8=
EXTT9=
EXTT10=
EXTT11=
PLAYORDER=
